<svg width="180" height="180" viewBox="0 0 180 180" fill="none" xmlns="http://www.w3.org/2000/svg">
  <!-- Background gradient -->
  <defs>
    <linearGradient id="grad1" x1="0%" y1="0%" x2="100%" y2="100%">
      <stop offset="0%" style="stop-color:#3b82f6;stop-opacity:1" />
      <stop offset="100%" style="stop-color:#1e40af;stop-opacity:1" />
    </linearGradient>
  </defs>
  
  <!-- Rounded background -->
  <rect width="180" height="180" rx="40" fill="url(#grad1)"/>
  
  <!-- Calendar base -->
  <rect x="40" y="50" width="100" height="90" rx="8" fill="white"/>
  
  <!-- Calendar header -->
  <rect x="40" y="50" width="100" height="24" rx="8" fill="#1e40af"/>
  
  <!-- Calendar binding rings -->
  <circle cx="60" cy="52" r="4" fill="white"/>
  <circle cx="90" cy="52" r="4" fill="white"/>
  <circle cx="120" cy="52" r="4" fill="white"/>
  
  <!-- Calendar grid -->
  <line x1="60" y1="82" x2="60" y2="132" stroke="#3b82f6" stroke-width="2"/>
  <line x1="80" y1="82" x2="80" y2="132" stroke="#3b82f6" stroke-width="2"/>
  <line x1="100" y1="82" x2="100" y2="132" stroke="#3b82f6" stroke-width="2"/>
  <line x1="120" y1="82" x2="120" y2="132" stroke="#3b82f6" stroke-width="2"/>
  
  <line x1="48" y1="90" x2="132" y2="90" stroke="#3b82f6" stroke-width="2"/>
  <line x1="48" y1="100" x2="132" y2="100" stroke="#3b82f6" stroke-width="2"/>
  <line x1="48" y1="110" x2="132" y2="110" stroke="#3b82f6" stroke-width="2"/>
  <line x1="48" y1="120" x2="132" y2="120" stroke="#3b82f6" stroke-width="2"/>
  
  <!-- Highlight date (today) -->
  <circle cx="90" cy="96" r="6" fill="#3b82f6"/>
  
  <!-- Fire streak indicator -->
  <circle cx="135" cy="55" r="18" fill="#ef4444"/>
  <path d="M135 45 C138 48, 138 52, 135 55 C132 52, 132 48, 135 45 Z" fill="#fbbf24"/>
  <text x="135" y="59" font-family="Arial" font-size="14" font-weight="bold" fill="white" text-anchor="middle">🔥</text>
</svg>
